<svg width="18" height="18" viewBox="0 0 18 18" fill="none" xmlns="http://www.w3.org/2000/svg">
<path d="M14.925 15.7312L9.99375 10.8C9.61875 11.125 9.18151 11.3781 8.68202 11.5594C8.18253 11.7406 7.65103 11.8312 7.0875 11.8312C5.73548 11.8312 4.59122 11.3625 3.65473 10.425C2.71824 9.4875 2.25 8.35625 2.25 7.03125C2.25 5.70625 2.71875 4.575 3.65625 3.6375C4.59375 2.7 5.72813 2.23125 7.05938 2.23125C8.39063 2.23125 9.52188 2.7 10.4531 3.6375C11.3844 4.575 11.85 5.70719 11.85 7.03406C11.85 7.56968 11.7625 8.0875 11.5875 8.5875C11.4125 9.0875 11.15 9.55625 10.8 9.99375L15.75 14.9062L14.925 15.7312ZM7.06875 10.7062C8.08438 10.7062 8.94766 10.3469 9.65859 9.62812C10.3695 8.90937 10.725 8.04375 10.725 7.03125C10.725 6.01875 10.3695 5.15312 9.65859 4.43437C8.94766 3.71562 8.08438 3.35625 7.06875 3.35625C6.04271 3.35625 5.17057 3.71562 4.45234 4.43437C3.73411 5.15312 3.375 6.01875 3.375 7.03125C3.375 8.04375 3.73411 8.90937 4.45234 9.62812C5.17057 10.3469 6.04271 10.7062 7.06875 10.7062Z" fill="black"/>
</svg>
